<svg width="16" height="16" viewBox="0 0 16 16" fill="none" xmlns="http://www.w3.org/2000/svg">
<g id="Group">
<path id="Vector" d="M8.16634 3.83333C5.77692 3.83333 3.83301 5.77724 3.83301 8.16666C3.83301 9.95225 4.69759 10.8544 5.46034 11.6503C6.04101 12.2563 6.49963 12.735 6.49963 13.5V14.9024C6.49963 14.9466 6.51717 14.989 6.54842 15.0202L7.31267 15.7845C7.34392 15.8157 7.38634 15.8333 7.43055 15.8333H8.90192C8.94613 15.8333 8.98851 15.8158 9.01976 15.7845L9.78413 15.0202C9.81538 14.989 9.83297 14.9465 9.83297 14.9024V13.5C9.83297 12.7349 10.2916 12.2563 10.8722 11.6503C11.635 10.8543 12.4996 9.95216 12.4996 8.16666C12.4997 5.77724 10.5558 3.83333 8.16634 3.83333ZM9.16634 13.5V14.6952L8.69492 15.1667H7.63772L7.1663 14.6952V13.5C7.1663 12.4671 6.54372 11.8174 5.94163 11.1891C5.23272 10.4493 4.49963 9.68429 4.49963 8.16666C4.49963 6.14487 6.14451 4.49999 8.1663 4.49999C10.1881 4.49999 11.833 6.14487 11.833 8.16666C11.833 9.68437 11.0998 10.4493 10.3909 11.1891C9.78888 11.8174 9.16634 12.467 9.16634 13.5Z" fill="#2B2A2A"/>
<path id="Vector_2" d="M2 7.83318H0.666667C0.574625 7.83318 0.5 7.9078 0.5 7.99984V8.33318C0.5 8.42522 0.574625 8.49984 0.666667 8.49984H2C2.09204 8.49984 2.16667 8.42522 2.16667 8.33318V7.99984C2.16667 7.9078 2.09204 7.83318 2 7.83318Z" fill="#2B2A2A"/>
<path id="Vector_3" d="M15.667 7.83318H14.3337C14.2416 7.83318 14.167 7.9078 14.167 7.99984V8.33318C14.167 8.42522 14.2416 8.49984 14.3337 8.49984H15.667C15.759 8.49984 15.8337 8.42522 15.8337 8.33318V7.99984C15.8337 7.9078 15.759 7.83318 15.667 7.83318Z" fill="#2B2A2A"/>
<path id="Vector_4" d="M13.4695 2.62765C13.4382 2.5964 13.3958 2.57886 13.3516 2.57886C13.3075 2.57886 13.2651 2.5964 13.2338 2.62769L12.291 3.57052C12.2597 3.60177 12.2422 3.64419 12.2422 3.68836C12.2422 3.73257 12.2598 3.77498 12.291 3.80623L12.5267 4.04194C12.5593 4.07448 12.6019 4.09073 12.6446 4.09073C12.6872 4.09073 12.7299 4.07444 12.7624 4.0419L13.7052 3.09907C13.7703 3.03398 13.7703 2.92848 13.7052 2.86336L13.4695 2.62765Z" fill="#2B2A2A"/>
<path id="Vector_5" d="M4.04216 3.57052L3.09937 2.62769C3.06812 2.59644 3.02571 2.57886 2.9815 2.57886C2.93729 2.57886 2.89487 2.5964 2.86362 2.62769L2.62791 2.8634C2.56283 2.92848 2.56283 3.03402 2.62791 3.09911L3.57075 4.04194C3.602 4.07319 3.64441 4.09073 3.68862 4.09073C3.73283 4.09073 3.77525 4.07319 3.8065 4.0419L4.04216 3.80619C4.10725 3.74111 4.10725 3.63561 4.04216 3.57052Z" fill="#2B2A2A"/>
<path id="Vector_6" d="M7.99967 2.16667H8.33301C8.42505 2.16667 8.49967 2.09204 8.49967 2V0.666667C8.49967 0.574625 8.42505 0.5 8.33301 0.5H7.99967C7.90763 0.5 7.83301 0.574625 7.83301 0.666667V2C7.83301 2.09204 7.90763 2.16667 7.99967 2.16667Z" fill="#2B2A2A"/>
</g>
</svg>
