<svg width="14" height="14" viewBox="0 0 14 14" fill="none" xmlns="http://www.w3.org/2000/svg">
<g id="ICON/snow_cold">
<path id="Vector" d="M11.7499 6.79976C11.7499 6.79976 11.7005 6.76684 11.6676 6.76684H9.19796L10.8993 5.06556C10.9432 5.02165 10.9432 4.94482 10.8993 4.90092L10.7346 4.73628C10.7346 4.73628 10.6852 4.70335 10.6523 4.70335C10.6194 4.70335 10.5919 4.71433 10.57 4.73628L8.5394 6.76684H7.23324V5.46618L9.26382 3.43562C9.26382 3.43562 9.29675 3.38623 9.29675 3.3533C9.29675 3.32038 9.28577 3.29294 9.26382 3.27098L9.09918 3.10634C9.05527 3.06244 8.97844 3.06244 8.93453 3.10634L7.23324 4.80762V2.33803C7.23324 2.27217 7.17836 2.22278 7.11799 2.22278H6.88201C6.84908 2.22278 6.82164 2.23375 6.79969 2.25571C6.77773 2.27766 6.76676 2.3051 6.76676 2.33803V4.80762L5.06546 3.10634C5.04351 3.08439 5.01607 3.07342 4.98314 3.07342C4.95021 3.07342 4.92277 3.08439 4.90082 3.10634L4.73618 3.27098C4.69228 3.31489 4.69228 3.39172 4.73618 3.43562L6.76676 5.46618V6.77232H5.46609L3.43551 4.74177C3.43551 4.74177 3.38612 4.70884 3.35319 4.70884C3.32027 4.70884 3.29282 4.71981 3.27087 4.74177L3.10623 4.90641C3.06233 4.95031 3.06233 5.02714 3.10623 5.07105L4.80753 6.77232H2.33791C2.27205 6.77232 2.22266 6.8272 2.22266 6.88757V7.12355C2.22266 7.15648 2.23363 7.18392 2.25558 7.20588C2.27754 7.22783 2.30498 7.2388 2.33791 7.2388H4.80753L3.10623 8.94008C3.06233 8.98399 3.06233 9.06082 3.10623 9.10472L3.27087 9.26936C3.27087 9.26936 3.32575 9.30229 3.35319 9.30229C3.38063 9.30229 3.41356 9.29131 3.43551 9.26936L5.46609 7.2388H6.76676V8.54495L4.73618 10.5755C4.69228 10.6194 4.69228 10.6962 4.73618 10.7401L4.90082 10.9048C4.90082 10.9048 4.95021 10.9377 4.98314 10.9377C5.01607 10.9377 5.04351 10.9267 5.06546 10.9048L6.76676 9.2035V11.6731C6.76676 11.739 6.82164 11.7883 6.88201 11.7883H7.11799C7.15092 11.7883 7.17836 11.7774 7.20031 11.7554C7.22226 11.7335 7.23324 11.706 7.23324 11.6731V9.2035L8.93453 10.9048C8.95649 10.9267 8.98941 10.9377 9.01685 10.9377C9.0443 10.9377 9.07722 10.9267 9.09918 10.9048L9.26382 10.7401C9.26382 10.7401 9.29675 10.6908 9.29675 10.6578C9.29675 10.6249 9.28577 10.5975 9.26382 10.5755L7.23324 8.54495V7.24429H8.5394L10.57 9.27485C10.57 9.27485 10.6194 9.30778 10.6523 9.30778C10.6852 9.30778 10.7127 9.2968 10.7346 9.27485L10.8993 9.11021C10.9432 9.0663 10.9432 8.98947 10.8993 8.94557L9.19796 7.24429H11.6676C11.7334 7.24429 11.7828 7.18941 11.7828 7.12904V6.89306C11.7828 6.86013 11.7719 6.83269 11.7499 6.81074V6.79976Z" fill="#2B2A2A"/>
</g>
</svg>
